<?xml version="1.0" standalone="no"?>
<!DOCTYPE svg PUBLIC "-//W3C//DTD SVG 20010904//EN"
 "http://www.w3.org/TR/2001/REC-SVG-20010904/DTD/svg10.dtd">
<svg version="1.0" xmlns="http://www.w3.org/2000/svg"
 width="1280.000000pt" height="640.000000pt" viewBox="0 0 1280.000000 640.000000"
 preserveAspectRatio="xMidYMid meet">
<metadata>
Created by potrace 1.15, written by Peter Selinger 2001-2017
</metadata>
<g transform="translate(0.000000,640.000000) scale(0.100000,-0.100000)"
fill="#000000" stroke="none">
<path d="M4991 4825 c-195 -141 -502 -436 -624 -597 -117 -157 -176 -305 -179
-454 -2 -79 19 -135 72 -191 l31 -32 -49 -103 c-27 -57 -62 -136 -78 -175
l-28 -73 -55 -16 c-159 -46 -251 -58 -461 -58 -236 -1 -339 14 -455 68 -92 42
-158 97 -342 283 l-152 153 89 60 89 60 38 -23 c30 -17 53 -22 108 -22 64 0
77 4 150 44 44 24 118 73 165 109 80 61 440 415 481 474 l19 26 -55 -14 c-31
-8 -59 -13 -63 -10 -10 6 -198 -27 -299 -53 -246 -63 -488 -193 -560 -300 -19
-28 -23 -47 -23 -111 l0 -77 -101 -67 -101 -67 -85 30 c-127 46 -234 62 -418
62 -314 0 -680 -71 -1209 -236 -45 -14 -48 -14 -41 3 18 44 15 92 -13 186
l-28 99 -17 -59 c-29 -105 -26 -161 8 -202 14 -17 25 -34 25 -39 0 -5 -26 -17
-57 -27 -126 -39 -760 -270 -770 -280 -2 -1 5 -23 16 -47 11 -24 26 -61 34
-81 l15 -37 164 66 c545 219 1030 378 1373 453 55 12 105 23 112 25 7 2 26
-21 43 -51 28 -48 30 -58 21 -86 -18 -50 -13 -138 10 -188 35 -79 391 -411
415 -388 2 2 -9 38 -25 79 -15 41 -34 99 -41 129 -19 87 -121 291 -170 340
-39 39 -114 80 -146 80 -17 0 -59 79 -47 90 4 4 51 13 103 19 309 35 483 19
657 -64 62 -29 97 -57 245 -202 192 -188 257 -233 403 -282 90 -30 90 -30 109
-78 11 -26 41 -97 68 -157 42 -96 46 -111 34 -125 -8 -9 -26 -41 -40 -71 -33
-71 -33 -135 0 -242 61 -195 150 -310 459 -591 127 -116 307 -256 329 -257 4
0 5 10 2 23 -25 86 -67 267 -82 347 -28 154 -142 478 -230 651 -45 90 -158
168 -275 189 -35 7 -69 14 -74 15 -11 3 -120 244 -113 250 2 1 48 -1 103 -6
173 -16 393 5 599 57 189 48 389 129 826 336 l115 55 81 -38 c44 -21 127 -54
184 -73 l104 -35 12 -59 c17 -81 37 -116 102 -178 65 -63 185 -125 297 -156
71 -20 106 -22 315 -23 373 -2 563 15 749 65 l44 11 -74 48 c-41 26 -137 85
-214 131 -77 46 -173 106 -214 133 -141 95 -407 208 -583 249 -88 21 -92 21
-164 4 -89 -21 -179 -65 -218 -104 l-27 -30 -131 49 c-72 27 -133 51 -135 53
-13 12 287 104 427 131 175 33 285 37 452 15 183 -23 368 -57 618 -111 l185
-41 103 -109 103 -108 -10 -53 c-11 -59 -1 -130 25 -179 28 -55 195 -218 280
-275 94 -63 197 -111 315 -149 46 -15 119 -42 161 -62 72 -32 166 -63 196 -63
7 0 -8 25 -33 56 -25 30 -61 86 -80 124 -57 114 -186 290 -353 484 -71 81 -85
92 -176 137 -86 42 -107 49 -160 49 -34 0 -76 -4 -93 -9 -31 -9 -34 -7 -88 55
-31 35 -53 64 -48 64 4 0 123 -27 263 -60 258 -61 501 -115 665 -150 50 -11
145 -24 212 -29 148 -11 489 2 596 23 101 20 166 8 217 -40 82 -77 194 -95
367 -60 45 10 91 18 102 19 42 3 4 26 -127 77 -171 66 -248 75 -343 40 -33
-12 -63 -19 -66 -16 -9 9 -5 11 102 40 145 40 326 110 678 260 598 256 764
312 1067 361 99 16 145 9 191 -29 30 -25 40 -29 105 -40 30 -5 112 9 204 34
l45 13 -83 23 c-138 37 -128 40 93 24 331 -24 519 -74 735 -194 52 -29 214
-130 360 -223 298 -190 340 -217 340 -210 0 2 -37 29 -82 58 -46 30 -168 112
-272 184 -105 71 -225 150 -268 176 l-77 47 57 7 57 7 -50 20 c-28 11 -80 21
-116 23 -42 2 -99 15 -155 35 -261 92 -711 128 -1032 80 -253 -37 -488 -96
-670 -169 -29 -11 -55 -21 -58 -21 -3 0 10 17 30 38 38 40 166 215 162 220 -5
5 -207 -78 -259 -106 -67 -36 -113 -91 -132 -156 -24 -80 -58 -103 -328 -213
-410 -167 -663 -241 -897 -262 -158 -14 -401 -20 -394 -10 3 5 13 9 22 9 48 0
286 90 442 168 l175 87 -60 8 c-227 29 -418 43 -476 36 -220 -30 -259 -48
-306 -143 l-26 -53 -96 -22 -96 -21 -175 40 c-96 22 -263 63 -370 91 -677 175
-754 193 -995 235 -77 13 -155 24 -172 24 -18 0 -33 3 -33 8 0 4 47 38 104 75
l104 68 39 -23 c90 -55 158 -62 283 -27 130 35 255 117 482 315 131 115 458
436 458 451 0 5 -102 -3 -227 -18 -331 -40 -375 -47 -505 -85 -255 -73 -420
-162 -502 -270 -60 -78 -75 -120 -76 -205 l0 -66 -152 -100 -153 -101 -83 -6
c-173 -13 -422 -66 -657 -138 -96 -29 -160 -55 -574 -237 -152 -67 -311 -131
-325 -131 -2 0 24 62 57 139 l60 139 76 4 c89 5 133 25 209 93 94 85 174 239
247 479 26 86 175 753 175 783 0 9 -23 -4 -89 -52z m3024 -1495 c4 -6 27 -21
53 -35 30 -16 38 -23 22 -20 -14 2 -53 9 -88 15 -35 6 -73 15 -85 19 -19 7
-16 10 23 19 61 13 68 14 75 2z"/>
</g>
</svg>
