<?xml version="1.0" standalone="no"?>
<!DOCTYPE svg PUBLIC "-//W3C//DTD SVG 20010904//EN"
 "http://www.w3.org/TR/2001/REC-SVG-20010904/DTD/svg10.dtd">
<svg version="1.0" xmlns="http://www.w3.org/2000/svg"
 width="1280.000000pt" height="416.000000pt" viewBox="0 0 1280.000000 416.000000"
 preserveAspectRatio="xMidYMid meet">
<metadata>
Created by potrace 1.15, written by Peter Selinger 2001-2017
</metadata>
<g transform="translate(0.000000,416.000000) scale(0.100000,-0.100000)"
fill="#000000" stroke="none">
<path d="M4635 4122 c-15 -27 -51 -58 -135 -114 -63 -43 -130 -94 -148 -115
-49 -55 -79 -181 -53 -221 10 -17 85 19 177 84 88 62 116 99 148 193 23 72 47
211 35 211 -2 0 -13 -17 -24 -38z"/>
<path d="M8145 4101 c7 -74 46 -201 74 -248 27 -43 114 -110 210 -161 76 -41
79 -44 110 -111 17 -38 44 -113 58 -167 25 -92 27 -114 27 -309 1 -257 -12
-333 -99 -560 -22 -58 33 39 70 124 110 249 129 471 59 693 -26 82 -83 204
-123 263 -16 23 -21 46 -21 95 0 77 -30 149 -81 196 -19 17 -80 61 -136 98
-73 48 -109 78 -128 109 l-27 42 7 -64z"/>
<path d="M3899 4050 c17 -24 36 -69 45 -113 10 -39 24 -101 32 -137 20 -83 55
-143 106 -180 39 -29 115 -57 125 -47 8 9 -18 173 -39 242 -19 62 -30 78 -92
140 -58 57 -173 135 -200 135 -3 0 7 -18 23 -40z"/>
<path d="M8893 4075 c-99 -43 -210 -144 -245 -221 -31 -71 -64 -284 -43 -284
2 0 28 9 58 20 101 38 152 115 182 274 18 100 45 179 71 207 20 22 19 23 -23
4z"/>
<path d="M4687 3689 c-26 -4 -82 -26 -125 -50 -42 -23 -104 -57 -137 -75 -37
-21 -74 -34 -97 -34 -84 0 -18 -33 122 -61 93 -18 176 -9 251 29 62 30 181
114 187 130 4 12 -68 50 -113 59 -22 5 -61 6 -88 2z"/>
<path d="M8026 3689 c-39 -9 -116 -48 -116 -58 1 -18 168 -126 238 -154 74
-30 238 -16 338 29 l39 17 -52 7 c-38 6 -84 26 -166 73 -92 54 -209 101 -237
96 -3 -1 -22 -5 -44 -10z"/>
<path d="M4226 3520 c-131 -292 -145 -608 -37 -885 80 -207 195 -360 495 -659
200 -199 226 -228 196 -221 -19 5 -124 9 -233 11 -153 1 -202 5 -220 16 -12 9
-143 82 -292 163 -148 81 -281 154 -295 163 -14 9 -20 10 -14 3 18 -20 361
-221 487 -286 64 -33 117 -62 117 -65 0 -3 -37 -13 -82 -23 -46 -10 -218 -64
-383 -120 -165 -55 -345 -113 -400 -129 -58 -16 -81 -25 -55 -22 58 7 305 66
390 93 35 11 65 19 67 17 1 -1 -20 -19 -47 -40 -77 -59 -212 -207 -274 -299
-183 -275 -223 -530 -116 -751 65 -134 188 -253 350 -335 146 -75 252 -105
419 -121 258 -25 492 48 630 195 99 106 142 228 140 395 l-2 95 -8 -79 c-19
-183 -95 -325 -228 -429 -263 -207 -637 -209 -942 -5 -145 97 -248 227 -307
390 -24 66 -27 86 -27 213 0 127 3 147 27 213 78 216 270 428 488 541 41 21
85 42 98 46 21 6 20 3 -13 -52 -48 -80 -121 -255 -141 -339 -23 -98 -14 -193
30 -331 37 -112 105 -261 129 -281 10 -9 13 7 13 81 -1 89 1 97 53 222 99 238
113 283 118 381 8 127 -25 220 -106 307 -32 34 -25 40 74 62 446 103 1018 -73
1624 -500 106 -75 281 -212 356 -279 l40 -35 -45 -43 c-25 -24 -99 -89 -166
-145 -181 -153 -322 -308 -300 -330 9 -9 89 35 161 89 38 29 145 127 237 217
l168 163 157 -152 c87 -84 191 -179 232 -211 72 -59 164 -113 182 -107 15 5
-47 89 -128 172 -43 43 -147 137 -231 209 -84 71 -152 133 -150 137 5 12 134
120 259 217 407 314 843 534 1219 614 191 41 490 30 628 -22 24 -9 23 -9 -17
-56 -65 -73 -103 -160 -109 -246 -6 -98 18 -190 104 -398 66 -159 68 -167 71
-259 1 -52 2 -97 3 -100 2 -13 61 95 92 170 127 300 120 433 -42 747 l-68 132
55 -24 c267 -118 508 -396 578 -663 20 -80 21 -232 1 -310 -68 -262 -280 -469
-573 -559 -79 -24 -104 -27 -238 -27 -172 0 -236 13 -350 72 -134 69 -238 205
-281 367 -29 113 -29 296 1 455 3 14 -2 6 -9 -17 -41 -120 -40 -326 0 -464 46
-156 174 -313 311 -383 127 -64 207 -81 373 -80 176 1 291 27 440 100 80 39
109 61 180 133 141 142 194 279 193 496 -1 96 -6 140 -27 220 -52 199 -169
392 -328 539 -45 42 -79 76 -77 76 3 0 65 -20 139 -45 297 -101 455 -135 619
-135 l94 0 -21 -23 c-29 -31 -49 -92 -63 -194 -21 -156 2 -232 87 -291 30 -20
54 -44 54 -54 0 -9 13 -21 30 -27 17 -5 30 -16 30 -24 0 -16 21 -27 51 -27 10
0 19 -4 19 -10 0 -5 18 -10 40 -10 33 0 40 -3 40 -19 0 -13 9 -21 30 -26 23
-5 30 -12 30 -30 0 -24 31 -51 44 -38 3 3 3 16 0 27 -3 12 -1 34 5 49 8 20 7
30 -3 40 -17 17 -18 28 -13 235 2 99 0 136 -10 144 -7 6 -13 21 -13 33 0 12
-6 28 -14 34 -8 7 -17 22 -20 34 -3 15 -27 33 -73 56 -37 18 -92 51 -121 74
-65 49 -68 47 112 72 153 21 430 17 586 -9 105 -18 304 -57 308 -60 1 -2 -12
-31 -30 -66 -25 -47 -33 -78 -36 -129 -4 -69 4 -100 88 -335 23 -64 32 -106
31 -148 0 -37 3 -57 9 -53 17 11 86 156 108 225 43 140 34 226 -42 402 -22 50
-29 78 -22 78 7 0 84 -16 172 -36 479 -107 716 -124 896 -63 66 22 152 70 203
114 18 15 3 9 -34 -15 -181 -114 -432 -134 -796 -64 -190 37 -467 103 -482
115 -6 6 -16 8 -21 5 -5 -3 -74 8 -153 24 -208 43 -400 63 -548 58 l-124 -5
59 28 c64 30 68 38 7 14 -111 -42 -165 -50 -358 -50 -253 1 -370 24 -870 176
-243 74 -450 129 -484 129 -12 0 -21 3 -21 8 0 4 55 35 123 69 125 64 481 273
501 294 6 7 -5 3 -24 -8 -98 -57 -185 -105 -275 -153 -55 -29 -156 -85 -224
-123 l-125 -70 -170 -2 c-94 -1 -195 -7 -225 -14 -30 -6 -56 -9 -58 -7 -3 2
40 51 93 108 157 165 161 176 9 22 -134 -137 -142 -143 -195 -155 -121 -25
-333 -104 -487 -179 -242 -120 -525 -315 -784 -541 -52 -45 -102 -89 -111 -97
-15 -13 -28 -5 -126 79 -335 289 -666 507 -913 604 -68 26 -173 67 -233 91
-162 64 -256 124 -366 234 -259 259 -480 592 -564 851 -78 244 -71 528 19 750
33 81 26 87 -9 9z m5491 -2232 c-3 -7 -5 -2 -5 12 0 14 2 19 5 13 2 -7 2 -19
0 -25z m128 -268 c37 -69 75 -135 83 -147 8 -13 12 -23 9 -23 -22 0 -199 330
-212 395 -4 17 7 1 23 -35 15 -36 59 -121 97 -190z"/>
<path d="M2740 3357 c0 -24 4 -47 9 -52 10 -10 17 -59 26 -176 3 -37 12 -82
19 -100 18 -41 61 -89 81 -89 7 0 49 -19 94 -42 71 -37 82 -40 97 -27 31 25
44 75 44 166 -1 115 -19 159 -84 193 -25 14 -46 30 -46 36 0 7 -11 15 -25 18
-14 4 -25 11 -25 16 0 6 -11 10 -25 10 -14 0 -25 5 -25 10 0 6 -11 8 -25 4
-18 -4 -27 -1 -31 10 -3 9 -17 16 -31 16 -14 0 -22 4 -18 10 7 12 -12 40 -26
40 -5 0 -9 -19 -9 -43z m207 -232 c40 -54 99 -155 76 -130 -10 10 -125 177
-152 218 -20 32 20 -14 76 -88z"/>
<path d="M10043 3393 c-7 -2 -13 -13 -13 -24 0 -12 -7 -19 -20 -19 -10 0 -23
-7 -28 -16 -6 -11 -17 -15 -31 -11 -11 3 -24 1 -27 -4 -3 -5 -16 -9 -29 -9
-12 0 -25 -7 -29 -15 -3 -8 -15 -15 -26 -15 -11 0 -20 -6 -20 -12 0 -7 -20
-25 -45 -40 -65 -39 -80 -74 -80 -188 0 -102 14 -153 47 -171 14 -8 30 -4 71
19 29 16 73 37 99 47 65 24 108 88 115 170 14 169 16 186 27 204 10 15 15 91
7 90 -3 0 -12 -3 -18 -6z m-116 -190 c-8 -10 -47 -65 -86 -122 -80 -118 -97
-126 -23 -11 47 73 108 150 120 150 3 0 -2 -8 -11 -17z"/>
<path d="M3626 3290 c-21 -4 -41 -11 -45 -17 -7 -10 -44 -25 -111 -43 -25 -6
-52 -16 -61 -20 -9 -5 -26 -6 -37 -3 -11 2 -23 0 -26 -6 -4 -6 -17 -11 -29
-11 -12 0 -28 -9 -35 -20 -7 -11 -17 -20 -23 -20 -25 0 -60 -54 -74 -113 -8
-34 -24 -88 -35 -119 -11 -31 -18 -63 -15 -70 8 -21 42 -38 89 -44 48 -7 193
19 237 41 38 20 77 70 89 114 6 22 17 42 25 45 8 3 15 16 15 30 0 13 5 26 11
28 5 2 11 32 13 68 1 39 7 65 14 68 7 2 10 13 6 27 -5 19 -1 24 18 27 15 2 24
11 26 26 2 12 0 21 -5 21 -4 -1 -25 -5 -47 -9z m-232 -288 c-55 -54 -116 -105
-135 -115 l-34 -18 30 23 c41 31 164 146 199 186 16 18 31 30 35 26 3 -3 -39
-49 -95 -102z"/>
<path d="M9126 3292 c-9 -8 14 -42 29 -42 9 0 15 -10 15 -24 0 -14 5 -28 11
-32 6 -4 8 -20 5 -39 -4 -19 -3 -36 2 -39 5 -3 7 -17 4 -31 -2 -15 0 -25 7
-25 6 0 11 -11 11 -25 0 -14 8 -29 20 -35 11 -6 20 -17 20 -26 0 -27 39 -92
67 -112 86 -60 278 -78 336 -32 20 16 21 21 10 56 -7 22 -23 78 -36 125 -23
81 -59 139 -85 139 -6 0 -16 9 -22 20 -6 11 -21 20 -35 20 -13 0 -27 5 -30 11
-4 6 -13 8 -20 5 -8 -3 -37 4 -66 14 -28 11 -56 17 -60 14 -5 -3 -28 6 -51 19
-45 25 -123 48 -132 39z m394 -376 c35 -30 38 -34 12 -19 -46 28 -164 135
-203 185 -22 29 -4 16 57 -42 49 -47 109 -103 134 -124z"/>
<path d="M2674 2886 c-16 -4 -36 -12 -44 -17 -8 -5 -25 -13 -36 -18 -12 -5
-24 -17 -27 -25 -4 -9 -12 -16 -19 -16 -8 0 -21 -8 -30 -17 -36 -37 -54 -51
-75 -57 -13 -4 -23 -12 -23 -18 0 -5 -7 -7 -16 -4 -17 6 -96 -53 -88 -66 8
-13 52 -9 57 5 3 9 9 7 24 -5 11 -10 27 -18 36 -18 9 0 22 -9 29 -20 7 -11 18
-20 24 -20 6 0 17 -7 24 -15 7 -9 20 -13 27 -10 8 2 24 0 36 -7 12 -6 35 -12
52 -13 16 -2 52 -9 79 -16 46 -12 51 -12 105 16 79 41 187 150 196 199 9 47
-10 70 -72 85 -25 7 -69 24 -97 38 -53 28 -110 35 -162 19z m204 -171 c-12
-12 -164 -35 -221 -34 l-62 2 75 8 c41 4 100 12 130 17 69 12 85 13 78 7z"/>
<path d="M9991 2879 c-16 -10 -64 -30 -106 -45 -96 -34 -107 -52 -75 -118 25
-53 98 -122 174 -166 61 -34 89 -37 146 -14 22 9 49 14 59 11 11 -3 29 1 40 9
10 8 26 12 34 9 7 -3 20 1 27 10 7 8 19 15 26 15 7 0 21 11 30 24 9 15 21 23
30 19 8 -3 23 2 33 11 16 15 20 15 31 1 9 -11 17 -12 33 -4 19 11 18 13 -19
44 -21 18 -42 31 -46 28 -9 -5 -110 60 -128 82 -7 8 -18 15 -26 15 -7 0 -18 9
-24 20 -6 11 -17 20 -26 20 -8 0 -17 7 -20 15 -4 8 -18 15 -33 15 -15 0 -31 3
-35 8 -15 15 -95 9 -125 -9z m64 -178 c44 -6 96 -13 115 -15 19 -3 -8 -3 -60
0 -52 2 -115 10 -140 19 -25 8 -34 13 -20 11 14 -3 61 -9 105 -15z"/>
<path d="M3097 2768 c5 -7 38 -51 73 -98 88 -118 150 -189 174 -202 13 -7 5 7
-19 33 -22 24 -82 97 -134 162 -51 64 -95 117 -98 117 -3 0 -1 -6 4 -12z"/>
<path d="M9576 2617 c-71 -89 -112 -146 -92 -127 52 49 239 290 225 290 -2 0
-62 -73 -133 -163z"/>
<path d="M1665 2563 c4 -10 10 -40 13 -66 3 -33 11 -52 23 -60 11 -7 19 -20
19 -30 0 -10 5 -28 11 -39 6 -11 12 -33 14 -47 1 -14 8 -48 15 -76 6 -27 13
-67 14 -87 1 -20 8 -44 15 -52 7 -8 10 -24 6 -35 -4 -14 1 -24 19 -36 14 -9
28 -26 32 -38 4 -12 24 -38 45 -58 30 -29 53 -40 97 -49 31 -7 97 -28 147 -47
49 -19 103 -33 119 -31 70 7 94 143 58 318 -35 169 -62 206 -184 252 -42 15
-58 26 -58 39 0 14 -7 19 -30 19 -17 0 -39 9 -51 21 -15 15 -29 20 -50 15 -15
-3 -31 -1 -35 5 -4 7 -23 8 -49 5 -33 -5 -44 -3 -48 9 -4 9 -19 15 -42 15 -31
0 -35 3 -35 25 0 25 -25 45 -55 45 -12 0 -15 -5 -10 -17z m418 -408 c71 -81
109 -131 140 -186 40 -69 32 -70 -11 -3 -47 72 -134 175 -262 309 l-95 99 88
-79 c48 -44 111 -107 140 -140z"/>
<path d="M11098 2569 c-10 -5 -18 -21 -18 -34 0 -22 -4 -25 -39 -25 -26 0 -41
-5 -45 -16 -5 -12 -15 -14 -50 -9 -26 4 -46 3 -50 -3 -4 -6 -22 -8 -41 -5 -27
4 -35 2 -35 -10 0 -17 -21 -27 -57 -27 -16 0 -27 -7 -30 -19 -3 -12 -26 -27
-64 -40 -105 -39 -137 -78 -169 -209 -42 -174 -35 -299 21 -346 33 -28 41 -27
147 18 34 14 93 33 130 42 96 22 102 24 102 39 0 7 14 23 30 35 17 12 30 30
30 40 0 10 12 25 26 35 19 12 24 22 20 40 -4 14 0 28 10 36 11 9 14 22 10 42
-3 17 -1 36 6 44 6 8 13 26 14 41 7 70 18 119 31 139 8 12 12 27 9 32 -4 5 2
16 12 23 12 8 21 31 25 58 3 25 9 55 13 68 7 24 -8 29 -38 11z m-269 -320
c-122 -130 -213 -240 -245 -295 -14 -24 -28 -44 -30 -44 -8 0 39 85 74 135 32
44 280 305 290 305 2 0 -38 -45 -89 -101z"/>
<path d="M8413 2358 c-28 -40 -65 -93 -83 -118 -25 -35 -26 -38 -5 -15 56 63
155 205 143 205 -2 0 -27 -33 -55 -72z"/>
<path d="M5 2023 c4 -10 10 -31 13 -48 2 -16 10 -37 17 -45 19 -24 45 -108 61
-200 14 -79 18 -91 35 -101 11 -5 19 -14 19 -20 0 -23 64 -70 109 -80 25 -5
81 -22 123 -37 l77 -27 21 21 c41 41 45 154 11 272 -22 74 -86 142 -133 142
-10 0 -27 9 -38 20 -11 11 -28 20 -39 20 -10 0 -24 7 -31 16 -7 8 -23 14 -34
12 -12 -1 -26 1 -33 5 -6 4 -23 3 -38 -3 -20 -8 -27 -7 -31 5 -4 8 -17 15 -30
15 -14 0 -24 6 -24 15 0 15 -29 35 -50 35 -8 0 -9 -7 -5 -17z m311 -284 c38
-41 81 -90 94 -109 13 -19 19 -30 14 -25 -179 184 -251 263 -219 238 22 -17
72 -64 111 -104z"/>
<path d="M12768 2033 c-10 -2 -18 -13 -18 -24 0 -14 -7 -19 -29 -19 -16 0 -31
-6 -35 -15 -4 -12 -11 -13 -31 -5 -15 6 -32 7 -38 3 -7 -4 -22 -6 -35 -4 -13
1 -25 -4 -28 -13 -4 -10 -18 -16 -35 -16 -19 0 -29 -5 -29 -15 0 -8 -6 -15
-12 -15 -7 0 -36 -11 -63 -23 -40 -19 -56 -34 -77 -73 -53 -99 -65 -282 -20
-326 l22 -22 82 26 c46 15 103 32 127 38 45 12 101 55 101 77 0 7 9 17 20 23
11 6 20 21 20 35 0 13 5 27 10 30 6 3 7 17 4 30 -3 12 -1 26 5 29 6 4 11 20
11 36 0 16 5 32 10 35 6 4 8 15 5 25 -3 10 -1 21 5 25 5 3 10 14 10 24 0 10 6
24 14 30 8 7 17 28 21 47 3 20 9 42 12 50 5 14 1 15 -29 7z m-224 -255 c-55
-57 -119 -125 -143 -153 l-43 -50 32 50 c29 45 234 255 248 255 3 0 -39 -46
-94 -102z"/>
<path d="M2354 1715 c81 -78 229 -178 337 -229 61 -29 87 -36 135 -35 l59 0
-87 29 c-172 57 -334 147 -458 254 -40 35 -36 29 14 -19z"/>
<path d="M2260 1449 c-148 -17 -305 -50 -427 -90 -69 -22 -123 -42 -121 -44 2
-2 46 7 98 20 52 14 96 25 97 25 1 0 -13 -33 -32 -72 -18 -40 -45 -113 -60
-161 -24 -75 -27 -100 -22 -165 7 -105 69 -273 125 -342 l20 -25 -5 60 c-4 53
0 74 37 175 71 197 83 246 78 325 -5 73 -31 139 -71 183 -17 18 -19 25 -8 31
19 12 266 60 386 76 87 11 92 13 40 13 -33 -1 -94 -4 -135 -9z"/>
<path d="M3058 1429 c40 -5 112 -5 160 0 81 8 76 8 -73 8 -138 0 -150 -1 -87
-8z"/>
<path d="M569 1377 c30 -34 150 -116 216 -150 67 -33 179 -67 223 -67 33 0 34
-1 19 -18 -10 -10 -46 -36 -82 -57 -36 -21 -65 -43 -65 -50 0 -7 -7 -18 -15
-25 -8 -7 -12 -16 -9 -22 3 -5 1 -15 -5 -22 -7 -8 -9 -60 -6 -149 2 -75 1
-138 -3 -141 -4 -2 -6 -25 -4 -50 4 -41 6 -45 23 -35 10 5 19 19 19 29 0 11 7
20 15 20 8 0 19 9 25 20 6 11 21 20 35 20 13 0 27 5 30 10 3 6 15 10 26 10 10
0 19 7 19 15 0 8 7 15 15 15 9 0 20 10 26 23 5 12 26 32 45 45 20 13 42 39 50
57 26 64 14 181 -31 288 -6 14 -1 17 31 17 22 0 77 9 124 20 94 22 333 100
327 106 -2 2 -19 -1 -38 -6 -64 -19 -252 -50 -366 -61 -238 -22 -465 32 -618
147 -38 29 -44 31 -26 11z m472 -440 c-35 -71 -99 -181 -89 -152 14 38 124
250 126 244 2 -5 -15 -46 -37 -92z"/>
<path d="M3000 1349 c-30 -23 -88 -59 -127 -81 -40 -22 -73 -45 -73 -52 0 -7
-9 -21 -20 -31 -11 -10 -20 -28 -20 -40 0 -11 -5 -26 -12 -33 -13 -13 -18
-102 -6 -118 5 -6 4 -22 0 -35 -5 -13 -6 -49 -2 -79 8 -60 2 -138 -11 -145 -6
-4 -1 -114 6 -123 1 -1 10 0 19 4 9 4 16 17 16 34 0 23 5 30 29 35 17 3 31 14
34 26 4 14 14 19 40 19 20 0 38 4 42 9 3 5 18 12 34 16 17 3 31 14 34 26 3 11
14 19 26 19 13 0 25 9 30 23 5 13 32 40 60 60 27 20 58 51 67 69 34 65 27 270
-12 363 -18 43 -52 75 -79 75 -11 0 -45 -18 -75 -41z m49 -184 c-30 -72 -147
-278 -171 -300 -6 -5 8 24 31 65 23 41 70 131 104 200 68 137 86 155 36 35z"/>
<path d="M11697 1169 c-45 -25 -86 -175 -73 -265 7 -41 16 -57 55 -95 26 -25
51 -53 54 -62 4 -10 13 -17 22 -17 8 0 15 -4 15 -9 0 -12 58 -41 82 -41 10 0
21 -7 24 -15 3 -8 14 -17 25 -20 10 -4 19 -12 19 -20 0 -7 8 -21 17 -31 17
-16 18 -15 25 26 4 23 4 50 -1 59 -8 16 -8 171 0 187 12 24 0 100 -22 134 -5
8 -12 23 -16 33 -3 10 -36 36 -74 57 -37 22 -71 45 -74 50 -13 21 -60 38 -78
29z m113 -304 c23 -44 34 -71 25 -60 -23 28 -115 217 -115 235 1 8 12 -10 25
-40 13 -31 42 -91 65 -135z"/>
<path d="M5473 1001 c-7 -11 -26 -22 -44 -26 -19 -4 -33 -15 -36 -26 -5 -19
-6 -19 -20 1 -11 15 -25 20 -59 20 -124 0 -190 -95 -201 -292 l-6 -98 58 -25
c71 -32 161 -41 237 -26 67 14 103 40 123 88 14 33 14 38 -1 54 -12 14 -14 22
-6 31 6 8 16 45 23 83 6 39 17 73 23 77 6 4 11 34 11 68 0 61 0 61 -26 56 -18
-3 -28 1 -37 15 -15 24 -24 24 -39 0z"/>
<path d="M7290 1000 c-8 -14 -17 -18 -38 -14 -27 5 -27 5 -27 -53 0 -42 4 -61
16 -70 11 -8 18 -35 23 -80 4 -37 12 -73 18 -80 8 -10 8 -20 -1 -37 -21 -39 8
-92 66 -119 69 -32 195 -31 281 2 l62 23 0 82 c0 200 -74 316 -202 316 -36 0
-50 -5 -61 -20 l-14 -21 -6 21 c-3 13 -17 22 -36 26 -18 4 -36 15 -42 25 -13
24 -26 24 -39 -1z"/>
<path d="M4826 898 c-10 -13 -19 -16 -35 -10 -11 4 -50 5 -86 2 -50 -4 -69 -2
-80 10 -13 12 -19 12 -35 2 -11 -6 -33 -12 -49 -12 -35 0 -48 -15 -30 -36 9
-11 8 -18 -5 -32 -22 -25 -20 -39 7 -46 13 -3 27 -18 34 -36 8 -21 18 -30 35
-30 20 -1 21 -2 6 -11 -24 -14 -23 -63 3 -115 31 -64 102 -97 212 -97 99 0
194 20 202 42 16 41 17 158 1 220 -25 97 -69 150 -134 162 -25 5 -36 2 -46
-13z"/>
<path d="M7920 910 c-93 -22 -158 -187 -130 -334 l12 -64 60 -12 c76 -17 190
-17 246 -1 57 16 106 67 121 126 10 41 10 50 -4 65 -15 16 -14 18 4 23 12 3
25 17 31 32 6 15 19 29 30 32 24 6 27 38 5 47 -12 4 -14 10 -5 25 16 32 12 41
-21 41 -17 0 -39 5 -50 11 -16 8 -25 7 -37 -4 -13 -10 -34 -12 -85 -8 -37 4
-75 2 -84 -3 -12 -6 -21 -3 -34 13 -9 11 -19 21 -21 20 -1 -1 -19 -5 -38 -9z"/>
<path d="M5051 744 c0 -11 3 -14 6 -6 3 7 2 16 -1 19 -3 4 -6 -2 -5 -13z"/>
<path d="M5116 482 c-44 -11 -69 -90 -62 -198 8 -127 44 -194 115 -214 30 -8
38 -7 48 7 11 14 17 14 38 5 14 -7 53 -12 87 -12 42 0 67 -5 79 -16 14 -13 22
-13 39 -4 13 7 36 9 52 6 29 -6 30 -5 24 24 -4 22 -1 32 9 36 20 8 19 44 -1
44 -8 0 -22 16 -30 35 -8 20 -21 38 -30 42 -13 5 -12 7 2 18 14 10 16 21 11
60 -10 71 -35 106 -100 139 -49 25 -70 29 -154 32 -54 2 -111 0 -127 -4z"/>
<path d="M7466 479 c-57 -14 -114 -49 -135 -84 -27 -44 -36 -119 -16 -138 14
-15 14 -17 -5 -27 -11 -6 -20 -19 -20 -30 0 -10 -12 -28 -27 -39 l-28 -21 22
-18 c15 -13 18 -23 12 -33 -17 -27 -10 -40 16 -33 14 3 39 0 57 -7 27 -11 32
-10 43 4 9 13 28 17 79 17 36 0 75 5 86 12 15 10 22 9 39 -6 19 -18 21 -18 58
0 21 11 51 38 67 62 25 38 29 56 34 134 4 68 1 103 -13 147 -16 55 -20 59 -54
65 -51 8 -169 6 -215 -5z"/>
</g>
</svg>
